<mxfile host="65bd71144e">
    <diagram id="67NUu4XReKvS5BXkfgcI" name="Página-1">
        <mxGraphModel dx="3663" dy="3261" grid="1" gridSize="10" guides="1" tooltips="1" connect="1" arrows="1" fold="1" page="1" pageScale="1" pageWidth="1169" pageHeight="827" math="0" shadow="0">
            <root>
                <mxCell id="0"/>
                <mxCell id="1" parent="0"/>
                <mxCell id="2" value="2023 / 2024" style="rounded=0;whiteSpace=wrap;html=1;fillColor=#008a00;fontColor=#ffffff;strokeColor=#005700;" vertex="1" parent="1">
                    <mxGeometry x="-2320" y="-2420" width="160" height="20" as="geometry"/>
                </mxCell>
                <mxCell id="3" value="2022 / 2023" style="rounded=0;whiteSpace=wrap;html=1;fillColor=#e3c800;fontColor=#000000;strokeColor=#B09500;" vertex="1" parent="1">
                    <mxGeometry x="-2320" y="-2400" width="160" height="20" as="geometry"/>
                </mxCell>
                <mxCell id="4" value="2021 / 2022" style="rounded=0;whiteSpace=wrap;html=1;fillColor=#f5f5f5;fontColor=#333333;strokeColor=#666666;" vertex="1" parent="1">
                    <mxGeometry x="-2320" y="-2380" width="160" height="20" as="geometry"/>
                </mxCell>
                <mxCell id="5" value="2019 / 2020" style="rounded=0;whiteSpace=wrap;html=1;fillColor=#0050ef;fontColor=#ffffff;strokeColor=#001DBC;" vertex="1" parent="1">
                    <mxGeometry x="-2320" y="-2360" width="160" height="20" as="geometry"/>
                </mxCell>
                <mxCell id="6" value="2018 / 2019" style="rounded=0;whiteSpace=wrap;html=1;fillColor=#fa6800;fontColor=#000000;strokeColor=#C73500;" vertex="1" parent="1">
                    <mxGeometry x="-2320" y="-2340" width="160" height="20" as="geometry"/>
                </mxCell>
                <mxCell id="7" value="&amp;nbsp;Legenda Matrículas:" style="rounded=0;whiteSpace=wrap;html=1;" vertex="1" parent="1">
                    <mxGeometry x="-2320" y="-2440" width="160" height="20" as="geometry"/>
                </mxCell>
                <mxCell id="8" value="2017 / 2018" style="rounded=0;whiteSpace=wrap;html=1;fillColor=#000066;fontColor=#ffffff;strokeColor=#432D57;" vertex="1" parent="1">
                    <mxGeometry x="-2320" y="-2320" width="160" height="20" as="geometry"/>
                </mxCell>
                <mxCell id="9" value="2016 / 2017" style="rounded=0;whiteSpace=wrap;html=1;fillColor=#f0a30a;fontColor=#000000;strokeColor=#BD7000;" vertex="1" parent="1">
                    <mxGeometry x="-2320" y="-2300" width="160" height="21" as="geometry"/>
                </mxCell>
                <mxCell id="10" value="2015 / 2016" style="rounded=0;whiteSpace=wrap;html=1;fillColor=#CCCCCC;strokeColor=#666666;fontColor=#333333;" vertex="1" parent="1">
                    <mxGeometry x="-2320" y="-2279" width="160" height="20" as="geometry"/>
                </mxCell>
                <mxCell id="11" value="2014 / 2015" style="rounded=0;whiteSpace=wrap;html=1;fillColor=#d80073;fontColor=#ffffff;strokeColor=#A50040;" vertex="1" parent="1">
                    <mxGeometry x="-2320" y="-2259" width="160" height="20" as="geometry"/>
                </mxCell>
                <mxCell id="12" value="2013 / 2014" style="rounded=0;whiteSpace=wrap;html=1;fillColor=#a20025;fontColor=#ffffff;strokeColor=#6F0000;" vertex="1" parent="1">
                    <mxGeometry x="-2320" y="-2239" width="160" height="20" as="geometry"/>
                </mxCell>
                <mxCell id="13" value="2012&lt;span style=&quot;background-color: initial;&quot;&gt;&amp;nbsp;/ 2013&lt;/span&gt;" style="rounded=0;whiteSpace=wrap;html=1;fillColor=#60a917;fontColor=#ffffff;strokeColor=#2D7600;" vertex="1" parent="1">
                    <mxGeometry x="-2320" y="-2219" width="160" height="20" as="geometry"/>
                </mxCell>
                <mxCell id="14" value="2011&lt;span style=&quot;background-color: initial;&quot;&gt;&amp;nbsp;/ 2012&lt;/span&gt;" style="rounded=0;whiteSpace=wrap;html=1;fillColor=#1ba1e2;fontColor=#ffffff;strokeColor=#006EAF;" vertex="1" parent="1">
                    <mxGeometry x="-2320" y="-2199" width="160" height="20" as="geometry"/>
                </mxCell>
                <mxCell id="15" value="2010&lt;span style=&quot;background-color: initial;&quot;&gt;&amp;nbsp;/ 2011&lt;/span&gt;" style="rounded=0;whiteSpace=wrap;html=1;fillColor=#FFFF00;fontColor=#000000;" vertex="1" parent="1">
                    <mxGeometry x="-2320" y="-2179" width="160" height="20" as="geometry"/>
                </mxCell>
                <mxCell id="16" value="2010+" style="rounded=0;whiteSpace=wrap;html=1;fillColor=#a0522d;strokeColor=#6D1F00;fontColor=#ffffff;" vertex="1" parent="1">
                    <mxGeometry x="-2320" y="-2159" width="160" height="20" as="geometry"/>
                </mxCell>
                <mxCell id="17" value="Não sabemos ano" style="rounded=0;whiteSpace=wrap;html=1;" vertex="1" parent="1">
                    <mxGeometry x="-2320" y="-2139" width="160" height="20" as="geometry"/>
                </mxCell>
                <mxCell id="18" value="&lt;div&gt;&lt;span style=&quot;background-color: initial;&quot;&gt;João Pinto&lt;/span&gt;&lt;/div&gt;&lt;div&gt;&lt;span style=&quot;background-color: initial;&quot;&gt;(&lt;/span&gt;&lt;i style=&quot;background-color: initial;&quot;&gt;&lt;font face=&quot;Times New Roman&quot;&gt;????&lt;/font&gt;&lt;/i&gt;&lt;span style=&quot;background-color: initial;&quot;&gt;)&lt;/span&gt;&lt;/div&gt;" style="rounded=0;whiteSpace=wrap;html=1;" vertex="1" parent="1">
                    <mxGeometry x="-1720" y="-2400" width="120" height="40" as="geometry"/>
                </mxCell>
            </root>
        </mxGraphModel>
    </diagram>
</mxfile>